<svg style="vertical-align: middle; fill: white; overflow: hidden;" viewBox="0 -80 4375 1184" version="1.1" xmlns="http://www.w3.org/2000/svg" p-id="741">
<path d="M2403.662169 909.881059c144.823588-3.582209 197.021489-104.395802 197.021489-192.927536V186.274863h19.958021l19.958021-80.343829h-430.376811l19.958021 80.343829h289.647176V708.765617c0 76.249875-56.291854 124.865567-136.635682 124.865567l20.469765 76.249875z" p-id="742"></path>
<path d="M2420.037981 729.235382c19.958021-19.958021 28.145927-48.103948 28.145927-92.625687v-378.17891h-233.355322v498.950524H2343.788106c31.728136 0 59.874063-8.187906 76.249875-28.145927z m-124.865567-56.291854V338.774613h72.155922v289.647176c0 32.23988-12.281859 44.009995-40.427786 44.009995h-31.728136zM1888.847576 101.325337v808.555722h80.343828V186.274863h96.71964l-60.385807 253.313343c24.051974 19.958021 68.573713 72.155922 68.573714 160.687656s-52.197901 120.771614-68.573714 128.95952v84.437781c44.009995-4.093953 153.011494-64.47976 153.011495-209.303348 0-88.531734-32.23988-148.917541-60.385807-188.833583l72.155922-313.699151-281.459271-0.511744zM2794.122939 829.537231l-15.864068 80.343828h715.930035l-20.469766-80.343828h-297.835082V729.235382h273.783108l-19.958021-80.343828h-257.407296V548.077961H3357.041479c88.531734 0 132.541729-44.009995 132.541729-132.541729v-313.699151H2777.747126V548.077961h313.699151v96.71964h-257.407296l-19.958021 80.343828h273.783108V829.537231H2794.122939z m381.761119-462.616691h188.833583l-19.958021-80.343828h-168.875562v-100.813594h233.355322v225.167417c0 40.427786-15.864068 56.291854-48.103948 56.291854h-185.251374V366.92054z m-313.69915 100.813593v-281.45927h233.355322V287.088456h-168.875562L2906.706647 366.92054h188.833583v100.813593h-233.355322zM4269.993003 101.325337h-562.91854l-19.958021 84.437781h603.346327l-20.469766-84.437781zM3674.834583 902.204898l-4.093953 8.187906H4221.889055c32.23988 0 56.291854-8.187906 72.155923-28.145927 15.864068-24.051974 12.281859-52.197901 4.093953-68.573714-8.187906-40.427786-40.427786-181.157421-48.103948-201.115442v-4.093953H4165.597201l4.093953 8.187906c4.093953 19.958021 40.427786 164.781609 48.103948 213.397302h-442.65867c19.958021-92.625687 56.291854-253.313343 76.249875-330.074963h494.856572l-19.958021-80.343828h-676.013993l-19.958021 80.343828h136.635682c-15.864068 72.155922-63.968016 273.271364-92.113943 402.230885zM295.276362 782.968516c-33.775112-7.676162-59.362319-36.333833-59.362319-72.667666v-399.16042c2.558721-36.333833 26.098951-64.991504 59.362319-72.667666l370.502748-80.343828 38.892554-158.128936h-430.376811C121.795102 0.511744 0 122.306847 0 272.75962v471.828086c0 150.452774 124.353823 274.806597 274.806597 274.806597h430.376811l-38.892553-158.128936-371.014493-78.296851zM1373.521239 0.511744h-432.935532l38.892554 158.128936 370.502748 80.343828c33.775112 7.676162 59.362319 36.333833 59.362319 72.667666v399.16042c-2.558721 36.333833-26.098951 64.991504-59.362319 72.667666l-370.502748 80.343828-38.892554 158.128935h432.935532c150.452774 0 274.806597-121.795102 274.806597-274.806596v-474.386807c-3.070465-150.452774-124.865567-272.247876-274.806597-272.247876z" p-id="743"></path>
<path d="M665.77911 490.250875h316.257872v38.892553h-316.257872v-38.892553z" p-id="744"></path>
</svg>
